<svg width="23" height="23" viewBox="0 0 23 23" fill="none" xmlns="http://www.w3.org/2000/svg">
<path d="M5.79328 21.9882C8.43135 21.9882 10.563 19.8661 10.563 17.2659C10.563 16.368 10.3157 15.6451 10.0684 14.8289L10.351 15.7967C10.2568 15.4352 10.139 15.0621 10.0095 14.6307C10.0095 14.6307 6.5588 5.74561 5.61663 5.74561C4.67447 5.74561 1.41221 14.8172 1.41221 14.8172C1.17666 15.6334 1 16.3797 1 17.2775C1 19.8778 3.13166 21.9999 5.76972 21.9999C6.74722 21.9999 7.66583 21.7084 8.41957 21.1954" fill="#E5F9FD"/>
<path d="M5.79328 21.9882C8.43135 21.9882 10.563 19.8661 10.563 17.2659C10.563 16.368 10.3157 15.6451 10.0684 14.8289L10.351 15.7967C10.2568 15.4352 10.139 15.0621 10.0095 14.6307C10.0095 14.6307 6.5588 5.74561 5.61663 5.74561C4.67447 5.74561 1.41221 14.8172 1.41221 14.8172C1.17666 15.6334 1 16.3797 1 17.2775C1 19.8778 3.13166 21.9999 5.76972 21.9999C6.74722 21.9999 7.66583 21.7084 8.41957 21.1954" stroke="#04CBF1" stroke-width="1.5" stroke-miterlimit="10" stroke-linecap="round" stroke-linejoin="round"/>
<path d="M13.1154 10.4797C14.6464 10.4797 15.8948 9.24376 15.8948 7.72794C15.8948 7.20323 15.7535 6.78346 15.6122 6.30539L15.777 6.86508C15.7299 6.65519 15.6593 6.43365 15.5768 6.17713C15.5768 6.17713 13.5629 1 13.0212 1C12.4677 1 10.5716 6.29374 10.5716 6.29374C10.4303 6.7718 10.336 7.20323 10.336 7.72794C10.3242 9.24376 11.5726 10.4797 13.1154 10.4797C13.6807 10.4797 14.2107 10.3048 14.6464 10.0133L13.1154 10.4797Z" fill="#E5F9FD"/>
<path d="M13.1154 10.4797C14.6464 10.4797 15.8948 9.24376 15.8948 7.72794C15.8948 7.20323 15.7535 6.78346 15.6122 6.30539L15.777 6.86508C15.7299 6.65519 15.6593 6.43365 15.5768 6.17713C15.5768 6.17713 13.5629 1 13.0212 1C12.4677 1 10.5716 6.29374 10.5716 6.29374C10.4303 6.77181 10.336 7.20323 10.336 7.72794C10.3242 9.24376 11.5726 10.4797 13.1154 10.4797ZM13.1154 10.4797C13.6807 10.4797 14.2107 10.3048 14.6464 10.0133" stroke="#04CBF1" stroke-width="1.5" stroke-miterlimit="10" stroke-linecap="round" stroke-linejoin="round"/>
<path d="M19.2892 16.3097C20.6082 16.3097 21.6682 15.2719 21.6682 13.9893C21.6682 13.5462 21.5386 13.1964 21.4209 12.8L21.5622 13.278C21.5151 13.1031 21.4562 12.9166 21.3855 12.7067C21.3855 12.7067 19.666 8.35742 19.195 8.35742C18.7239 8.35742 17.0986 12.8 17.0986 12.8C16.9809 13.1964 16.8984 13.5695 16.8984 14.001C16.8984 15.2719 17.9702 16.3097 19.2892 16.3097C19.772 16.3097 20.2314 16.1698 20.6082 15.9132L19.2892 16.3097Z" fill="#E5F9FD"/>
<path d="M19.2892 16.3097C20.6082 16.3097 21.6682 15.2719 21.6682 13.9893C21.6682 13.5462 21.5386 13.1964 21.4209 12.8L21.5622 13.278C21.5151 13.1031 21.4562 12.9166 21.3855 12.7067C21.3855 12.7067 19.666 8.35742 19.195 8.35742C18.7239 8.35742 17.0986 12.8 17.0986 12.8C16.9809 13.1964 16.8984 13.5695 16.8984 14.001C16.8984 15.2719 17.9702 16.3097 19.2892 16.3097ZM19.2892 16.3097C19.772 16.3097 20.2314 16.1698 20.6082 15.9132" stroke="#04CBF1" stroke-width="1.5" stroke-miterlimit="10" stroke-linecap="round" stroke-linejoin="round"/>
</svg>
