<svg width="18" height="26" viewBox="0 0 18 26" fill="none" xmlns="http://www.w3.org/2000/svg">
<path fill-rule="evenodd" clip-rule="evenodd" d="M9.00097 0.142578C9.17147 0.142578 9.33499 0.210309 9.45555 0.330871C9.57611 0.451432 9.64384 0.614949 9.64384 0.785449V3.00657C9.64384 3.22514 9.60655 3.44308 9.53262 3.6488C9.45869 3.85452 9.34812 4.04738 9.20412 4.21324C9.0595 4.38045 8.88203 4.51612 8.68275 4.61182C8.48113 4.70873 8.26036 4.75925 8.03666 4.75968H6.58377C5.7924 4.74361 5.00681 5.0644 4.38194 5.68927C3.75578 6.31543 3.33856 7.2013 3.2312 8.18361C3.1862 8.72169 3.23892 9.26363 3.38549 9.77407C3.52545 10.2709 3.76036 10.7359 4.07722 11.1434C4.3684 11.5189 4.73753 11.8268 5.15917 12.046C5.30446 12.1206 5.62975 12.2048 6.04891 12.2678C6.44749 12.3282 6.84285 12.3571 7.073 12.3571C7.2435 12.3571 7.40701 12.4249 7.52758 12.5454C7.64814 12.666 7.71587 12.8295 7.71587 13C7.71587 13.1705 7.64814 13.334 7.52758 13.4546C7.40701 13.5751 7.2435 13.6429 7.073 13.6429C6.76506 13.6429 6.30412 13.6069 5.85669 13.5394C5.43046 13.4751 4.92195 13.3684 4.5748 13.1916C3.98755 12.8876 3.47322 12.4599 3.06727 11.938C2.64737 11.3997 2.33583 10.7851 2.14989 10.1283C1.95869 9.45911 1.89116 8.76067 1.9506 8.06725L1.95253 8.05375C2.08753 6.80015 2.62112 5.63205 3.47228 4.78025C4.32472 3.92845 5.43818 3.45272 6.60306 3.47394H8.03666C8.06495 3.47394 8.09645 3.46751 8.12923 3.45208C8.16924 3.4321 8.20469 3.40409 8.23338 3.36979C8.27255 3.32368 8.30284 3.27071 8.32274 3.21357C8.3463 3.14711 8.35826 3.07709 8.3581 3.00657V0.785449C8.3581 0.614949 8.42583 0.451432 8.54639 0.330871C8.66695 0.210309 8.83047 0.142578 9.00097 0.142578Z" fill="#00C2E7"/>
<path fill-rule="evenodd" clip-rule="evenodd" d="M2.64462 12.8084C3.21858 12.5131 3.85449 12.3585 4.49995 12.3571C4.67045 12.3571 4.83396 12.4249 4.95452 12.5454C5.07509 12.666 5.14282 12.8295 5.14282 13C5.14282 13.1705 5.07509 13.334 4.95452 13.4546C4.83396 13.5751 4.67045 13.6429 4.49995 13.6429C4.06601 13.6429 3.63336 13.7477 3.22963 13.954C2.80776 14.1731 2.43841 14.481 2.14704 14.8566C1.83017 15.2641 1.59527 15.7291 1.45531 16.2259C1.30813 16.7422 1.25586 17.2808 1.30102 17.8157C1.40838 18.7987 1.8256 19.6846 2.45176 20.3101C2.71469 20.5737 3.18399 20.8186 3.75293 20.9947C4.31223 21.1677 4.88631 21.2487 5.29582 21.2403H8.03574C8.26074 21.2403 8.4806 21.2917 8.68182 21.3882C8.8824 21.4833 9.05854 21.6209 9.20255 21.7868C9.34719 21.9533 9.45777 22.1455 9.5317 22.3512C9.60563 22.5569 9.64291 22.7755 9.64291 22.9941V25.2145C9.64291 25.385 9.57518 25.5486 9.45462 25.6691C9.33406 25.7897 9.17054 25.8574 9.00004 25.8574C8.82954 25.8574 8.66603 25.7897 8.54546 25.6691C8.4249 25.5486 8.35717 25.385 8.35717 25.2145V22.9934C8.35734 22.9229 8.34538 22.8529 8.32181 22.7864C8.30171 22.7292 8.2712 22.6763 8.23181 22.6302C8.20331 22.596 8.16808 22.568 8.12831 22.5479C8.0995 22.5337 8.06785 22.5263 8.03574 22.5261H5.31511C4.74681 22.5363 4.03772 22.4283 3.37364 22.2233C2.71598 22.0201 2.01846 21.6961 1.5421 21.2197C0.690935 20.3679 0.156709 19.1998 0.0223489 17.9462L0.0210633 17.9327C-0.038591 17.2394 0.0287264 16.5409 0.21971 15.8717C0.405574 15.2146 0.717119 14.5998 1.13709 14.0614C1.5431 13.5396 2.05743 13.1122 2.64462 12.8084ZM13.5021 0.142578C13.6726 0.142578 13.8361 0.210309 13.9566 0.330871C14.0772 0.451432 14.1449 0.614949 14.1449 0.785449V4.11681C14.1449 4.77254 14.0331 5.42441 13.8132 6.03449C13.5989 6.6372 13.2748 7.19499 12.8573 7.6796C12.7454 7.80817 12.6175 7.94125 12.478 8.07368C13.5451 8.13539 14.6972 8.32247 15.673 8.82712C16.3358 9.16977 16.9286 9.66478 17.3509 10.3687C17.7727 11.0714 18.0002 11.9418 18.0002 13C18.0002 14.0543 17.7797 14.9235 17.3689 15.6255C16.9575 16.3294 16.3789 16.8257 15.7264 17.1703C14.7383 17.693 13.5644 17.8762 12.4838 17.9321C12.6149 18.0568 12.739 18.1873 12.8553 18.3217C13.6872 19.2796 14.1424 20.5621 14.1424 21.8832V25.2145C14.1424 25.385 14.0746 25.5486 13.9541 25.6691C13.8335 25.7897 13.67 25.8574 13.4995 25.8574C13.329 25.8574 13.1655 25.7897 13.0449 25.6691C12.9244 25.5486 12.8566 25.385 12.8566 25.2145V21.8832C12.8566 20.8495 12.4992 19.8723 11.8846 19.1651C11.2353 18.4162 10.4163 17.9546 9.64291 17.954C9.47241 17.954 9.3089 17.8862 9.18834 17.7657C9.06777 17.6451 9.00004 17.4816 9.00004 17.3111C9.00004 17.1406 9.06777 16.9771 9.18834 16.8565C9.3089 16.736 9.47241 16.6682 9.64291 16.6682H11.5696C12.8412 16.6682 14.1494 16.5499 15.1253 16.0337C15.5998 15.783 15.9868 15.4423 16.2593 14.9762C16.5326 14.5082 16.7145 13.8737 16.7145 13C16.7145 12.1296 16.5281 11.497 16.2484 11.0296C15.9688 10.5642 15.5708 10.2215 15.0822 9.96886C14.0774 9.44942 12.7377 9.33242 11.4526 9.33242H9.52591C9.35541 9.33242 9.19189 9.26469 9.07133 9.14413C8.95077 9.02357 8.88304 8.86005 8.88304 8.68955C8.88304 8.51905 8.95077 8.35553 9.07133 8.23497C9.19189 8.11441 9.35541 8.04668 9.52591 8.04668H9.52784C9.9429 8.04511 10.3523 7.95065 10.7262 7.77024C11.0919 7.59667 11.567 7.20452 11.8865 6.83615C12.2 6.47166 12.4432 6.0523 12.604 5.59927C12.7738 5.1235 12.8602 4.62197 12.8592 4.11681V0.785449C12.8592 0.614949 12.9269 0.451432 13.0475 0.330871C13.1681 0.210309 13.3316 0.142578 13.5021 0.142578Z" fill="#00C2E7"/>
<path fill-rule="evenodd" clip-rule="evenodd" d="M3.85938 12.9999C3.85938 12.8294 3.92711 12.6658 4.04767 12.5453C4.16823 12.4247 4.33175 12.357 4.50225 12.357H12.8596C13.0301 12.357 13.1936 12.4247 13.3141 12.5453C13.4347 12.6658 13.5024 12.8294 13.5024 12.9999C13.5024 13.1704 13.4347 13.3339 13.3141 13.4544C13.1936 13.575 13.0301 13.6427 12.8596 13.6427H4.50225C4.33175 13.6427 4.16823 13.575 4.04767 13.4544C3.92711 13.3339 3.85938 13.1704 3.85938 12.9999ZM7.7166 8.68877C7.7166 8.51827 7.78433 8.35475 7.90489 8.23419C8.02545 8.11363 8.18897 8.0459 8.35947 8.0459H9.64521C9.81571 8.0459 9.97923 8.11363 10.0998 8.23419C10.2204 8.35475 10.2881 8.51827 10.2881 8.68877C10.2881 8.85927 10.2204 9.02279 10.0998 9.14335C9.97923 9.26391 9.81571 9.33164 9.64521 9.33164H8.35947C8.18897 9.33164 8.02545 9.26391 7.90489 9.14335C7.78433 9.02279 7.7166 8.85927 7.7166 8.68877ZM4.50225 17.311C4.50225 17.1405 4.56998 16.9769 4.69054 16.8564C4.8111 16.7358 4.97462 16.6681 5.14512 16.6681H9.64521C9.81571 16.6681 9.97923 16.7358 10.0998 16.8564C10.2204 16.9769 10.2881 17.1405 10.2881 17.311C10.2881 17.4815 10.2204 17.645 10.0998 17.7655C9.97923 17.8861 9.81571 17.9538 9.64521 17.9538H5.14512C4.97462 17.9538 4.8111 17.8861 4.69054 17.7655C4.56998 17.645 4.50225 17.4815 4.50225 17.311Z" fill="#00C2E7"/>
</svg>
