<svg width="22" height="19" viewBox="0 0 22 19" fill="none" xmlns="http://www.w3.org/2000/svg">
<path d="M15.4101 0C13.7775 0 12.2042 0.602379 11 1.6714C9.79584 0.602379 8.22254 0 6.5899 0C2.95625 0 0 2.91729 0 6.50316C0 8.31237 0.772922 10.0543 2.12059 11.2822L9.79722 18.2767C10.1257 18.576 10.5528 18.7407 11 18.7407C11.4689 18.7407 11.91 18.5623 12.2438 18.2381L19.8794 11.2822C21.2271 10.0542 22 8.31237 22 6.50316C22 2.91729 19.0438 0 15.4101 0ZM11.3425 17.3287C11.251 17.419 11.1294 17.4687 11 17.4687C10.8778 17.4687 10.7613 17.4237 10.6717 17.3421L3.62459 10.9211H7.75397C7.993 10.9211 8.21245 10.7905 8.32404 10.5819L9.26045 8.83049L10.5759 13.3563C10.6448 13.5933 10.8463 13.7697 11.0929 13.8089C11.1272 13.8143 11.1615 13.817 11.1956 13.817C11.4063 13.817 11.6066 13.7147 11.7279 13.5393L13.5377 10.9211H18.3753L11.361 17.3111C11.3547 17.3168 11.3485 17.3227 11.3425 17.3287ZM6.5899 1.27209C8.08491 1.27209 9.51814 1.90017 10.5221 2.99519C10.6443 3.12846 10.8179 3.20453 11 3.20453C11.1821 3.20453 11.3557 3.1285 11.4779 2.99519C12.4818 1.90013 13.9151 1.27209 15.4101 1.27209C18.333 1.27209 20.7109 3.61873 20.7109 6.50316C20.7109 7.64244 20.3298 8.74849 19.6442 9.64904H13.1971C12.984 9.64904 12.7847 9.75297 12.6647 9.92666L11.4365 11.7034L10.0577 6.95967C9.98521 6.71008 9.76624 6.52911 9.50452 6.50235C9.24279 6.47564 8.99091 6.60857 8.8681 6.83818L7.36523 9.64896H2.3558C1.67015 8.74844 1.28906 7.6424 1.28906 6.50316C1.28906 3.61873 3.66704 1.27209 6.5899 1.27209Z" fill="#00C2E7"/>
</svg>
