<svg width="22" height="20" viewBox="0 0 22 20" fill="none" xmlns="http://www.w3.org/2000/svg">
<path fill-rule="evenodd" clip-rule="evenodd" d="M4.02032 13.9809C-2.64158 11.1705 -0.0127544 1.68603 4.61207 0.119276C6.5308 -0.530726 8.64699 1.62593 8.63411 2.96457C8.62798 3.54405 8.32934 4.1082 8.01783 4.69688C7.60944 5.46891 7.17896 6.28142 7.3617 7.22147C7.68364 8.87713 8.0442 11.6709 7.11519 12.9973C6.18618 14.323 5.25226 14.4996 4.02032 13.9809ZM4.49679 12.8507C4.97693 13.0531 5.2124 13.0396 5.34179 13.0022C5.47486 12.9642 5.73424 12.8317 6.11075 12.2933C6.33948 11.9671 6.49524 11.2785 6.48113 10.2495C6.46887 9.28246 6.3125 8.25105 6.15797 7.45571C5.91023 6.18024 6.4192 5.11448 6.78283 4.41113L6.95453 4.08306C7.07656 3.85372 7.17406 3.66914 7.25991 3.47169C7.37519 3.20801 7.40708 3.05226 7.40708 2.9523C7.40769 2.92042 7.38623 2.75853 7.22741 2.49178C7.05316 2.20792 6.83167 1.95594 6.5725 1.74673C5.98198 1.26536 5.41047 1.14334 5.00575 1.28069C3.28263 1.86447 1.66253 4.11311 1.2989 6.75175C0.949371 9.28246 1.814 11.7187 4.49679 12.8507ZM17.3877 0.119276C22.0125 1.68603 24.6419 11.1705 17.9794 13.9809C16.7475 14.5003 15.8136 14.323 14.8846 12.9973C13.9555 11.6709 14.3161 8.87713 14.638 7.22147C14.8208 6.28142 14.3903 5.46891 13.9819 4.69627C13.6704 4.1082 13.3718 3.54344 13.3662 2.96518C13.3528 1.62593 15.4696 -0.530726 17.3877 0.119276ZM16.658 13.0028C16.7873 13.0396 17.0234 13.0531 17.503 12.8507C20.1857 11.7194 21.0504 9.28246 20.7015 6.75175C20.3372 4.11311 18.7177 1.86447 16.9946 1.28069C16.5899 1.14334 16.0178 1.26536 15.4272 1.74673C15.1488 1.97362 14.922 2.24098 14.7729 2.49117C14.6135 2.75853 14.5921 2.92042 14.5927 2.9523C14.5933 3.05226 14.6252 3.20862 14.7398 3.47169C14.8257 3.66914 14.9238 3.85372 15.0452 4.08306C15.0973 4.1824 15.155 4.29033 15.2169 4.41113C15.5805 5.11448 16.0901 6.17962 15.8424 7.45571C15.6872 8.25105 15.5315 9.28308 15.5186 10.2495C15.5051 11.2785 15.6609 11.9671 15.889 12.2933C16.2661 12.8317 16.5255 12.9648 16.658 13.0028Z" fill="#00C2E7"/>
<path d="M13.8719 9.09099L13.9148 9.70236H13.9246C13.9246 9.70236 13.9185 9.70236 13.9093 9.7042C13.7734 9.72888 13.6445 9.78286 13.5316 9.8624C13.3537 9.98873 13.0925 10.2696 13.0925 10.9784V19.8497H11.8661V10.9778C11.8661 9.8949 12.3015 9.23202 12.8196 8.86226C13.0865 8.67337 13.3925 8.54699 13.7149 8.4925C13.7475 8.48734 13.7802 8.48325 13.813 8.48023L13.8228 8.479H13.829C13.829 8.479 13.8302 8.479 13.8719 9.09037M8.12244 9.09099C8.08074 9.70236 8.07951 9.70236 8.07951 9.70236H8.07031C8.07031 9.70236 8.07644 9.70236 8.08503 9.7042C8.22114 9.72883 8.35025 9.78282 8.46338 9.8624C8.64121 9.98873 8.90244 10.2696 8.90244 10.9784V19.8497H10.1289V10.9778C10.1289 9.8949 9.69348 9.23202 9.1747 8.86226C8.90783 8.67333 8.60183 8.54695 8.27942 8.4925C8.24685 8.48734 8.21413 8.48325 8.1813 8.48023L8.17211 8.479H8.16536L8.12244 9.09099Z" fill="#00C2E7"/>
</svg>
