<svg width="25" height="19" viewBox="0 0 25 19" fill="none" xmlns="http://www.w3.org/2000/svg">
<path fill-rule="evenodd" clip-rule="evenodd" d="M8.72406 13.2154C8.07101 13.4927 7.36873 13.6326 6.66023 13.6266C5.51677 13.6266 5.13853 14.5502 4.7366 15.5317C4.28109 16.644 3.79442 17.8311 2.1269 17.8311C-1.01184 17.8311 -0.237282 8.08532 1.63213 4.31276C3.50154 0.54021 6.06014 0.22583 11.2908 0.22583C14.4956 0.22583 15.3081 0.718777 15.9375 1.10106C16.3357 1.34251 16.6603 1.53931 17.471 1.53931C18.3079 1.53931 19.48 1.2878 20.6515 1.03504C22.4088 0.65653 24.1673 0.278646 24.7948 0.751472C25.841 1.53931 22.7023 7.32012 19.5635 7.32012C17.9484 7.32012 16.9794 8.48898 16.0391 9.62326C15.153 10.6922 14.2918 11.7309 12.9377 11.7309C11.6341 11.7309 10.7873 12.1452 9.97033 12.586V18.7742H8.72406V13.2154ZM2.92452 16.2956C2.78743 16.4371 2.59052 16.5736 2.1269 16.5736H2.12566C2.09263 16.5736 2.0677 16.5736 2.00227 16.5088C1.90943 16.417 1.77171 16.2145 1.63836 15.8316C1.36917 15.0608 1.23083 13.895 1.24765 12.5017C1.2813 9.70814 1.92438 6.5348 2.74692 4.87487C3.56697 3.22124 4.4512 2.46044 5.61959 2.03917C6.91135 1.57389 8.64118 1.48335 11.2908 1.48335C11.4883 1.48335 11.6746 1.48523 11.8516 1.48901C11.3014 2.19888 11.0016 2.97917 10.8409 3.65508C10.7339 4.10771 10.6727 4.57012 10.6583 5.03521C10.6527 5.21674 10.6554 5.39843 10.6664 5.57971L10.6682 5.60423L10.6695 5.61492L10.6701 5.62624V5.63001L10.6707 5.6319L11.2908 5.57028L11.9108 5.50803L11.9095 5.48917C11.9015 5.351 11.8997 5.21253 11.9039 5.07419C11.9127 4.78685 11.9475 4.38884 12.0522 3.94871C12.241 3.15522 12.6461 2.25924 13.5004 1.59841C14.3603 1.7097 14.7529 1.87821 14.986 1.99956C15.09 2.05426 15.1791 2.10771 15.2982 2.18001L15.3343 2.20202C15.4627 2.27999 15.6378 2.38499 15.8434 2.4793C16.2989 2.68805 16.8005 2.79683 17.471 2.79683C18.1203 2.79683 18.8731 2.67799 19.5847 2.54092C20.0368 2.45168 20.488 2.35779 20.9382 2.25924C21.2286 2.19636 21.5121 2.136 21.7738 2.08193C22.4892 1.9348 23.103 1.82791 23.5828 1.7971L23.6526 1.7927C23.4968 2.28942 23.1752 2.94961 22.7197 3.62176C22.2517 4.31213 21.6853 4.95158 21.0958 5.40555C20.4951 5.86831 19.9723 6.0626 19.5635 6.0626C17.3676 6.0626 16.0646 7.63387 15.2016 8.67383L15.1199 8.77192C14.6563 9.33089 14.3049 9.75467 13.9248 10.064C13.5696 10.3545 13.2705 10.4733 12.9377 10.4733C11.6671 10.4733 10.7318 10.8047 9.97033 11.1732V8.3997C9.97033 8.15134 10.0918 7.91932 10.3031 7.73321C10.5255 7.53641 10.7742 7.45656 10.905 7.45656V6.19904C10.4128 6.19904 9.88309 6.43357 9.48242 6.78693C9.08112 7.14092 8.74275 7.67536 8.72468 8.34436H5.55042C4.06112 8.34436 2.27521 9.00519 4.06112 10.3268C5.35725 11.2863 7.59369 10.523 8.72406 10.0313V11.8296C8.08908 12.154 7.51206 12.3691 6.66023 12.3691C5.60089 12.3691 4.86061 12.867 4.36833 13.5272C4.00566 14.012 3.75641 14.6269 3.57757 15.0671C3.55386 15.1258 3.52997 15.1845 3.50591 15.2431C3.28469 15.7757 3.12143 16.0919 2.92452 16.2956Z" fill="#00C2E7"/>
</svg>
