<svg width="30" height="27" viewBox="0 0 30 27" fill="none" xmlns="http://www.w3.org/2000/svg">
<path d="M20.3407 9C19.7253 13 18.3407 16.6667 15.3407 16.6667C12.3407 16.6667 11.3407 13.3333 10.3407 9C9.34066 4.66667 10.3407 1 15.3407 1C20.3407 1 20.956 5 20.3407 9Z" stroke="#00C2E7" stroke-width="1.5"/>
<path d="M20.6719 5.33343C21.8385 4.24543 23.0272 3.88677 24.8985 4.00277C27.7065 4.17743 28.3385 6.09877 28.3385 8.97077M28.3385 8.97077C28.3385 11.8434 27.2379 14.4554 25.0445 13.8641C22.8512 13.2734 23.1579 10.9401 24.1839 9.8461C25.2092 8.7521 27.0039 8.3061 28.3385 8.97077ZM10.0052 5.0001C8.82521 3.97077 7.43187 3.88677 5.72987 4.00343C3.17654 4.1781 1.67188 6.1281 1.67188 9.0001M1.67188 9.0001C1.67188 11.8721 3.60321 14.4548 5.59721 13.8641C7.59187 13.2728 7.31321 10.9394 6.38054 9.84543C5.44721 8.7521 2.88587 8.33477 1.67188 9.0001Z" stroke="#00C2E7" stroke-width="1.5" stroke-linecap="round"/>
<path d="M12.3359 15V25.6667M18.3359 15V25.6667" stroke="#00C2E7" stroke-width="1.5" stroke-linecap="round" stroke-linejoin="round"/>
</svg>
